<svg width="733" height="711" viewBox="0 0 733 711" fill="none" xmlns="http://www.w3.org/2000/svg">
    <path d="M366 711H365.7C359.3 710.8 207.7 703.3 92.2 545.6C-22.6 388.7 1.9 23.8 3 8.4L3.60001 0H728.5L729.1 8.4C730.2 23.9 754.7 388.7 639.9 545.6C524.4 703.3 372.7 710.7 366.3 711H366ZM20.4 18C17.4 74.1 5.10001 396.1 106.7 535C214.2 681.8 357.9 692.5 366 693C374 692.5 517.8 681.9 625.3 535C726.8 396.1 714.6 74 711.6 18H20.4Z" fill="white"/>
    <path d="M510.5 162.5L510.7 162.1C527.2 116.9 561.4 80.2002 589.3 80.2002C617.2 80.2002 624.7 116.4 608.2 161.6L608 162C591.5 207.2 557.3 243.9 529.4 243.9C501.5 244 494 207.7 510.5 162.5ZM582.1 162.5L582.3 162.1C590.7 139.2 588.5 119.6 574.7 119.6C560.9 119.6 544.7 138.9 536.4 161.7L536.2 162.1C527.9 184.8 530.2 204.6 544 204.6C557.7 204.6 573.9 185.2 582.1 162.5Z" fill="white"/>
    <path d="M312.9 283.1H336.7L344.2 366.3L374.5 283.1H399.7L342.4 440.6H320.2L312.2 354.2L280.8 440.6H255.6L312.9 283.1Z" fill="white"/>
    <path d="M118.2 371.5V283.1H157.2V370.6C157.2 393.3 167.4 404.1 182.9 404.1C198.6 404.1 208.8 393.8 208.8 371.7V283.1H247.8V370.4C247.8 421 222.1 443.5 182.5 443.5C143.1 443.5 118.2 420.8 118.2 371.5Z" fill="white"/>
    <path d="M420.9 283.1H499.8C572.3 283.1 614.6 315.5 614.6 360.9V361.4C614.6 406.8 571.8 440.6 498.7 440.6H420.9V283.1ZM477.4 321.6V401.9H500.4C534.5 401.9 556.9 387.5 556.9 362.1V361.7C556.9 336.5 534.5 321.7 500.4 321.7H477.4V321.6Z" fill="white"/>
    <path d="M199.5 544.1V482.9H251.8V543.5C251.8 559.2 265.4 566.7 286.2 566.7C307.3 566.7 320.9 559.5 320.9 544.3V482.9H373.2V543.4C373.2 578.5 338.8 594 285.7 594C232.9 593.9 199.5 578.2 199.5 544.1Z" fill="white"/>
    <path d="M478.8 141.6C478.8 124.5 471.3 108.9 459 97.1998H458.9C449.5 88.3998 435.6 83.2998 416.3 83.2998H350.3V240.8H389V212.4C389 212.4 404.2 209.4 414.1 206.6L434.3 240.8H478.8L450 193.3C467.6 181.2 478.8 162.6 478.8 141.6ZM417.1 170.9C404.9 176.9 389.1 179.1 389.1 179.1V158.9V150.9V120.8H414.6C427.4 120.8 435.5 127.1 435.5 139.7V140.1C435.5 140.8 435.5 141.4 435.4 142.1H435.5C434.4 157.7 429.3 164.9 417.1 170.9Z" fill="white"/>
    <path d="M536.4 521.7C536.4 497.3 511.9 482.8 474 482.8H409.2V593.9H451V577.7C451 577.7 473.2 573.1 491.7 566.3C510.2 559.4 513.6 556.4 518.9 553.1C524.1 549.8 529.6 543.2 532.5 538C535.1 533.3 536.6 528 536.6 522V521.7H536.4ZM451 550.3V548V538V536V508.7H470.8C482.3 508.7 490.4 511.7 493.5 517.4C493.9 518.2 495.6 522 495.1 526.3C495 526.6 495 526.9 494.9 527.3C494.8 527.6 494.8 527.8 494.7 528.1C494.4 529.3 493.9 530.5 493.1 531.7C488.6 538.2 480.8 543.3 469.6 547.1C458.4 550.9 451 550.6 451 550.6V550.3Z" fill="white"/>
    <path d="M314.9 167.2V167.1V167V158.8V158.1H285.8H233.4V158.8V162.3V175.8V182.1V182.2H265.5H268C265.4 187 261.9 191 258.1 194.3C253.5 198.3 248.3 201.2 243.5 203.3C240.2 204.8 237 205.9 234.5 206.7C234 206.9 233.4 207 232.9 207.2C232.1 207.4 231.3 207.6 230.7 207.8C230.5 207.9 230.3 207.9 230.1 208C228.7 208.3 227.9 208.5 227.9 208.5C223.9 209.3 219.7 209.7 215.4 209.7C210.7 209.7 206.1 209.2 201.8 208.3C191.2 206.8 182.2 202.9 174.8 196.3C166.2 188.7 161.6 178.9 160.8 167.1C161.5 144.7 186 126.7 216.2 126.7C230.9 126.7 244.2 131 254.2 137.9L293.9 108.7H294C294 108.7 287.1 101.3 268.5 93.7998C268.3 93.6998 268.2 93.6998 268 93.5998C267.7 93.4998 267.4 93.2998 267.1 93.1998C265.8 92.6998 264.4 92.0998 262.9 91.5998C260.9 90.8998 259 90.1998 257 89.5998C255.6 89.0998 254.1 88.6998 252.6 88.2998C252.4 88.2998 252.3 88.1998 252.1 88.1998C238.9 84.5998 224.3 82.7998 208.3 82.7998C174.7 82.7998 147.7 90.5998 127.3 106.1C106.9 121.6 96.6 141.2 96.6 164.7C96.6 187.7 107.1 207.2 128.1 222.9C145.9 236.3 167.7 244 193.3 246C199.6 246.3 243.9 247.6 268.1 221.1V243.5H273.9H285.9H315V191.7V186.2V179.2V177.7V177V167.2H314.9Z" fill="white"/>
</svg>
