<svg width="83" height="81" viewBox="0 0 83 81" fill="none" xmlns="http://www.w3.org/2000/svg">
    <path d="M41.499 80.6294L41.4604 80.6282C40.7347 80.601 23.5371 79.7573 10.4493 61.8703C-2.56818 44.0785 0.205647 2.70125 0.33039 0.948047L0.398433 0H82.6018L82.6699 0.948047C82.7946 2.70125 85.5673 44.0785 72.5498 61.8703C59.4597 79.7562 42.2633 80.601 41.5376 80.6282L41.499 80.6294ZM2.30927 2.04012C1.9702 8.39634 0.578743 44.9222 12.0971 60.6648C24.2822 77.3191 40.5838 78.5325 41.499 78.587C42.4062 78.5337 58.7113 77.3237 70.9009 60.6648C82.4193 44.9222 81.0267 8.39634 80.6887 2.04012H2.30927Z" fill="white"/>
    <path d="M12.2762 18.699V18.648C12.2762 13.4439 18.0076 9.36145 25.745 9.36145C30.1507 9.36145 33.2671 10.305 35.9173 11.938L31.8336 15.4591C30.043 14.3875 28.2875 13.7751 25.7802 13.7751C22.1627 13.7751 19.3684 15.9184 19.3684 18.648V18.699C19.3684 21.6078 22.1978 23.674 26.1737 23.674C27.8929 23.674 29.1834 23.4189 30.1859 22.9335V20.7652H25.279V17.1431H36.7769V25.1539C34.1266 26.7359 30.4728 27.9346 25.8879 27.9346C18.079 27.9346 12.2762 24.1072 12.2762 18.699Z" fill="white"/>
    <path d="M40.7153 9.71863H48.201C50.6211 9.71863 52.2949 10.4331 53.3575 11.6317C54.2851 12.6784 54.7591 14.0302 54.7591 15.7902V15.8412C54.7591 18.5969 53.4697 20.408 51.5022 21.3515L55.2796 27.5762H50.2366L47.0477 22.168H45.1029V27.5762H40.7153V9.71863ZM48.0207 18.2907C49.4904 18.2907 50.3727 17.4742 50.3727 16.1735V16.1225C50.3727 14.6936 49.4451 13.9792 47.9981 13.9792H45.1029V18.2907H48.0207Z" fill="white"/>
    <path d="M57.6781 18.699V18.648C57.6781 13.5199 60.0517 9.36145 63.2156 9.36145C66.3795 9.36145 68.7236 13.4689 68.7236 18.597V18.648C68.7236 23.7761 66.3501 27.9346 63.1861 27.9346C60.0222 27.9346 57.6781 23.8271 57.6781 18.699ZM65.8091 18.699V18.648C65.8091 16.0454 64.7545 13.8261 63.1873 13.8261C61.62 13.8261 60.5801 16.0205 60.5801 18.597V18.648C60.5801 21.2245 61.6495 23.4699 63.2167 23.4699C64.7681 23.4699 65.8091 21.2755 65.8091 18.699Z" fill="white"/>
    <path d="M35.4807 32.0908H38.1775L39.0325 41.5304L42.4686 32.0908H45.3298L38.8295 49.9494H36.3108L35.4059 40.1526L31.8405 49.9494H28.9794L35.4807 32.0908Z" fill="white"/>
    <path d="M13.399 42.1166V32.0895H17.8251V42.0134C17.8251 44.5899 18.9773 45.8147 20.7384 45.8147C22.5222 45.8147 23.6744 44.641 23.6744 42.1416V32.0895H28.1005V41.9885C28.1005 47.7289 25.1872 50.2805 20.6931 50.2805C16.2227 50.2805 13.399 47.704 13.399 42.1166Z" fill="white"/>
    <path d="M47.7293 32.0908H56.6802C64.9042 32.0908 69.6932 35.765 69.6932 40.918V40.9691C69.6932 46.1221 64.8384 49.9494 56.5475 49.9494H47.7293V32.0908ZM54.1366 36.4534V45.5607H56.746C60.6096 45.5607 63.1532 43.9277 63.1532 41.045V40.994C63.1532 38.1363 60.6096 36.4522 56.746 36.4522H54.1366V36.4534Z" fill="white"/>
    <path d="M21.0105 61.0425V54.4866H26.3291V60.9755C26.3291 62.6607 27.7126 63.4613 29.8287 63.4613C31.972 63.4613 33.3566 62.6936 33.3566 61.0595V54.4866H38.6752V60.9597C38.6752 64.7133 35.1756 66.3815 29.7754 66.3815C24.4024 66.3815 21.0105 64.6963 21.0105 61.0425Z" fill="white"/>
    <path d="M44.9012 54.4866H54.5381C60.1731 54.4866 63.2713 56.0051 62.3357 58.5737L62.3232 58.6066C61.3151 61.3759 56.7211 62.8274 51.1814 62.8274H48.0753L46.8608 66.1637H40.6486L44.9012 54.4866ZM51.9775 60.2917C54.1548 60.2917 55.7561 59.6748 56.0906 58.7562L56.1031 58.7234C56.4671 57.722 55.2787 57.2049 53.0696 57.2049H50.1234L48.9995 60.2906H51.9775V60.2917Z" fill="white"/>
</svg>
