<svg width="180" height="151" viewBox="0 0 180 151" fill="none" xmlns="http://www.w3.org/2000/svg">
    <path d="M166.003 131.541C166.003 131.541 164.768 128.25 154.782 124.693C144.795 121.136 123.457 114.982 113.039 111.913C102.62 108.844 87.3668 111.134 77.7815 110.843C68.1962 110.552 48.513 107.618 42.8423 113.036C37.1742 118.37 18.2786 122.468 10.9438 122.246C3.60892 122.023 -14.7468 138.568 26.4283 139.818C67.6869 141.071 74.3242 147.78 88.4938 148.21C102.663 148.64 129.561 139.278 138.73 139.557C147.898 139.835 165.806 138.043 166.003 131.541Z" fill="#45606D" fill-opacity="0.8"/>
    <path d="M138.732 139.473C129.564 139.195 102.666 148.557 88.4968 148.126C74.3272 147.696 67.6065 140.985 26.4313 139.735C-14.8272 138.482 3.61186 121.94 10.9467 122.162C18.2816 122.385 37.1746 118.37 42.8453 112.952C48.5134 107.618 68.1158 110.466 77.7845 110.759C87.4531 111.053 102.623 108.76 113.042 111.83C117.093 113.037 122.799 114.712 128.835 116.481L129.375 120.668C129.375 120.668 110.522 131.609 101.104 131.323C91.6852 131.037 81.15 134.555 77.6493 134.449C74.1486 134.342 58.4183 130.361 53.3339 130.207C48.2495 130.052 42.8088 133.391 48.1432 133.553C53.561 133.717 60.7315 136.605 67.9375 138.325C75.1434 140.046 77.3357 142.031 90.6718 142.436C104.008 142.841 120.345 135.077 131.764 135.424C143.183 135.771 159.224 137.759 165.923 131.455C165.806 138.043 147.901 139.752 138.732 139.473Z" fill="#060B0D" fill-opacity="0.8"/>
    <path d="M40.9366 101.632L46.6381 86.9551L53.5086 80.4894C53.5086 80.4894 53.2109 73.8062 56.6462 70.5734C60.0814 67.3406 64.3323 67.4697 64.4613 63.2188C64.5904 58.9679 66.9142 56.619 69.233 54.4369C71.6377 52.1739 76.7854 47.4914 76.9803 41.0734C77.1751 34.6554 83.3816 22.58 96.9277 16.0668C110.474 9.55355 130.529 0.234518 139.882 5.44066C149.234 10.6468 178.381 34.3907 178.168 41.3921C177.955 48.3936 164.333 62.9135 155.915 62.658C151.414 62.5213 142.99 59.6794 143.165 53.9282C143.254 51.0109 144.944 47.5583 146.525 44.9366C147.139 43.9541 148.71 44.419 148.674 45.5859C148.49 48.9173 149.462 52.6177 154.296 52.7644C158.714 52.8985 163.266 48.6151 163.44 42.8639C163.615 37.1127 152.251 34.9323 150.392 32.9571C148.614 31.0677 128.605 33.3802 128.347 41.882C128.089 50.3837 123.247 50.487 123.138 54.0711C123.029 57.6552 129.389 65.2732 127.583 67.0538C125.777 68.8344 124.718 76.2273 124.589 80.4782C124.46 84.7291 128.062 87.0075 126.945 90.8113C125.828 94.615 127.603 107.6 127.603 107.6C127.603 107.6 95.3891 116.216 83.5533 115.857C71.7175 115.498 40.9366 101.632 40.9366 101.632Z" fill="#45606D" fill-opacity="0.8"/>
    <path d="M46.6376 86.9548L53.5081 80.4892C53.5081 80.4892 53.2104 73.806 56.6456 70.5731C60.0808 67.3403 64.3317 67.4694 64.4608 63.2185C64.5898 58.9676 66.9137 56.6188 69.2324 54.4366C71.5512 52.2545 76.7849 47.4912 76.9797 41.0732C77.1746 34.6552 83.3811 22.5798 96.9272 16.0665C110.473 9.55328 130.528 0.234249 139.881 5.44039C140.702 5.88244 141.601 6.49373 142.664 7.19343C134.913 9.71121 126.704 13.5499 120.015 16.7674C106.469 23.2807 86.5124 34.8552 92.2659 37.6996C115.111 49.1552 95.622 50.8161 92.4749 50.0531C83.4504 47.7769 94.8636 62.0558 94.732 66.39C94.603 70.6409 83.1767 65.0381 79.7312 71.3574C78.5869 73.3249 81.2514 76.2423 84.2646 78.6698C86.626 80.5769 85.6762 84.3857 82.6528 85.0447L69.3619 88.6458C66.6694 89.3983 65.1664 92.1892 66.0023 94.8843C67.6842 99.941 71.2251 104.22 76.0745 106.62C81.4163 109.285 88.9076 112.599 96.351 114.744C91.3196 115.592 86.715 116.12 83.5477 116.023C71.7119 115.664 40.9336 101.715 40.9336 101.715L46.6376 86.9548Z" fill="#060B0D" fill-opacity="0.8"/>
    <path d="M40.9362 101.632L38.1218 114.645C37.5331 117.547 39.1116 120.514 42.001 121.52C49.0983 124.071 63.2374 128.255 80.741 128.786C99.995 129.371 118.294 125.671 126.026 123.82C128.211 123.303 129.61 121.176 129.259 118.996L127.436 107.595C127.436 107.595 100.019 109.349 81.2649 108.779C62.6777 108.215 40.9362 101.632 40.9362 101.632Z" fill="#BE4B4B"/>
    <path d="M79.0413 33.6271C81.8124 27.5376 87.7004 20.4582 96.9298 15.983C110.476 9.46975 130.529 0.234072 139.881 5.44021C149.234 10.6463 178.38 34.3903 178.168 41.3917C177.955 48.3931 164.333 62.9131 155.914 62.6575C155.331 62.6398 154.667 62.5362 154.002 62.4326C154.002 62.4326 167.119 56.3235 170.896 47.3446C174.834 38.5374 166.002 29.9265 163.251 29.843C160.5 29.7595 141.871 14.0936 139.287 11.2621C136.62 8.42803 125.393 7.25293 121.7 10.7282C118.008 14.2035 87.9658 17.2126 79.0413 33.6271Z" fill="#B6D6E7" fill-opacity="0.8"/>
    <path d="M129.072 34.4786C127.286 35.5924 125.672 36.5445 125.505 42.0456C125.338 47.5468 121.39 51.1812 119.571 50.6254C117.505 49.9787 112.573 47.5764 107.953 48.6041C103.417 49.6344 98.6504 49.9903 93.2504 46.4893C87.8505 42.9882 91.798 47.6131 94.5459 50.5331C97.2938 53.453 110.718 50.9406 112.092 52.4006C113.466 53.8606 117.25 55.644 117.189 57.6444C117.128 59.6448 107.266 54.7569 105.162 55.3604C102.972 56.0448 101.153 58.2421 98.069 58.1485C94.985 58.0549 98.8998 61.0103 102.277 59.6945C105.654 58.3788 114.289 62.4786 116.206 62.5368C118.123 62.595 122.94 60.5721 123.458 62.7569C123.976 64.9417 121.73 67.4598 121.601 71.7107C121.472 75.9616 124.642 67.7151 125.93 66.5028C127.219 65.2905 123.551 59.6729 123.024 57.8215C122.493 56.0535 121.4 53.6009 124.701 49.2794C128.086 44.9605 126.083 42.2301 127.301 40.5985C128.518 38.9669 130.527 33.2714 136.71 32.9585C136.707 33.0419 132.562 32.1652 129.072 34.4786Z" fill="#B6D6E7" fill-opacity="0.8"/>
    <path d="M123.725 75.9467C123.725 75.9467 122.606 82.5869 123.949 85.0471C125.293 87.5073 125.293 87.5073 124.639 92.5765C123.984 97.6457 125.931 104.963 124.984 105.935C124.039 106.824 110.799 103.252 107.063 105.391C103.328 107.53 94.1567 107.335 89.7391 107.201C85.3215 107.067 100.034 103.343 103.285 103.441C106.619 103.542 112.524 101.386 116.005 102.159C119.485 102.932 121.678 102.164 121.057 97.8905C120.436 93.6169 116.114 90.3154 111.982 91.7751C107.85 93.2348 98.9386 95.4671 94.6803 92.835C90.422 90.2029 83.8148 85.247 80.1094 86.3859C76.404 87.5248 82.5596 82.6226 88.5658 85.3912C94.4911 88.0739 98.8353 90.6252 102.311 88.8118C105.786 86.9985 114.523 87.7643 116.69 87.8301C118.941 87.8984 121.004 85.8754 117.276 85.0114C113.548 84.1473 101.238 77.4332 99.3487 79.2112C97.4593 80.9892 97.629 72.6517 104.529 76.1982C111.429 79.7448 120.065 81.0915 120.128 79.0077C120.275 76.9265 124.051 73.4538 123.725 75.9467Z" fill="#B6D6E7" fill-opacity="0.8"/>
    <path d="M107.51 19.2243C107.51 19.2243 87.1722 26.8662 84.8784 33.721C82.5821 40.6592 87.1487 41.3818 87.0753 43.799C87.0019 46.2162 89.1966 50.8713 92.2552 51.7984C95.2306 52.723 96.7763 54.0214 98.86 54.0846C100.944 54.1479 98.2891 56.4033 95.0738 55.1377C91.8586 53.8721 88.81 52.6115 87.6077 53.743C86.4054 54.8745 85.4181 48.9212 83.1676 48.8529C80.9172 48.7846 77.6537 51.8557 79.1741 53.9876C80.6945 56.1194 83.3113 55.1143 85.4126 57.3472C87.5139 59.5801 89.3173 60.636 92.4012 60.7296C95.4852 60.8232 94.932 62.5584 98.4756 64.0008C102.019 65.4432 102.112 67.8654 104.28 67.9312C106.53 67.9996 103.08 71.7325 100.736 69.2419C98.4729 66.8373 94.5655 66.3849 92.2317 66.3141C89.8979 66.2432 86.5463 63.9724 84.6875 61.9971C82.7478 59.936 77.7519 56.8644 76.8122 60.3398C75.9557 63.8177 74.9378 64.3708 77.8121 65.8763C80.6889 67.2985 81.8203 68.5008 83.4367 70.2185C85.0531 71.9361 82.353 72.9387 79.6026 70.1021C76.9355 67.268 74.4527 66.6086 72.0886 67.538C69.7269 68.384 66.8223 67.8787 66.8704 66.295C66.9185 64.7114 64.6855 66.8127 64.6855 66.8127C64.6855 66.8127 64.4685 62.9684 66.0144 61.5137C67.5603 60.0589 70.5231 58.6472 73.3193 54.4773C76.1156 50.3073 78.4875 46.3748 78.6115 42.2907C78.7355 38.2065 80.9206 32.1826 83.2369 30.0838C85.6441 27.7375 92.4943 21.9387 107.51 19.2243Z" fill="#060B0D" fill-opacity="0.8"/>
    <path d="M63.349 69.6086C63.349 69.6086 59.04 71.3966 58.9033 75.8976C58.7667 80.3985 67.7209 73.9961 69.8223 76.229C71.9236 78.4619 77.6925 78.0531 79.4428 78.1062C81.1932 78.1593 85.583 79.2103 86.5528 80.2409C87.6035 81.3573 75.1768 78.4773 72.6004 80.9019C70.0239 83.3265 66.7329 81.8083 64.2324 81.7324C61.7319 81.6565 59.4662 82.0883 59.4131 83.8386C59.36 85.589 64.0479 85.0639 65.8234 87.0366C67.6822 89.0119 65.222 90.3555 61.7643 88.8322C58.2233 87.3065 55.3894 87.2204 55.3033 90.0543C55.2173 92.8883 61.3346 94.7425 63.8351 94.8184C66.3357 94.8943 69.9349 94.503 75.009 97.7439C80.1665 100.987 85.9455 100.245 85.9455 100.245C85.9455 100.245 87.2562 103.789 82.3385 103.639C77.4208 103.49 72.5261 99.8376 67.3584 99.6807C62.1073 99.5213 60.1371 101.213 61.0236 102.242C61.9126 103.186 62.3445 102.699 64.158 103.421C65.9714 104.144 65.0622 103.866 66.618 104.831C68.2572 105.798 65.643 106.72 63.246 105.98C60.8516 105.156 61.6523 106.265 56.8584 104.785C52.0646 103.304 47.4374 101.829 45.187 101.761C42.9365 101.692 41.6079 101.485 42.2091 100.92C42.8103 100.354 45.238 91.8345 46.7157 89.8771C48.1934 87.9197 48.6454 89.5185 49.729 89.5514C50.8125 89.5843 50.3478 88.4022 50.3883 87.0686C50.4288 85.735 52.6391 81.6307 53.9651 81.9213C55.2886 82.2952 55.7963 82.0603 55.3594 79.9613C54.9251 77.779 56.0645 73.2251 58.358 71.8765C60.7348 70.5304 63.2885 68.8559 63.329 67.5223C63.3694 66.1887 65.6856 66.843 64.9833 67.9897C64.4503 69.0581 63.349 69.6086 63.349 69.6086Z" fill="#060B0D" fill-opacity="0.8"/>
    <path d="M122.537 46.3773C122.537 46.3773 124.396 42.8463 124.513 39.0122C124.629 35.1781 131.093 31.1195 133.831 31.6198C136.654 32.0392 145.305 30.1327 147.056 30.1858C148.806 30.239 150.726 32.9669 152.643 33.0251C154.643 33.0858 157.429 34.7555 160.126 36.5894C162.824 38.4233 165.615 37.1731 164.804 41.9039C163.993 46.6346 162.919 54.5276 157.85 53.8732C152.78 53.2187 147.176 53.716 148.318 46.3256C149.46 38.9353 144.294 49.7074 145.239 51.5715C146.183 53.4356 151.002 56.8355 153.586 56.914C156.17 56.9924 160.815 57.8843 162.641 55.4369C164.553 52.9087 167.152 52.487 167.296 47.736C167.441 42.9851 169.345 40.7069 165.547 36.6705C161.748 32.6341 163.329 32.7655 158.391 30.53C153.456 28.211 149.22 27.5819 148.172 26.3821C147.122 25.2656 145.77 25.8086 140.102 25.6365C134.435 25.4645 130.194 25.002 127.13 26.9947C124.066 28.9874 119.611 30.1035 120.164 33.8745C120.8 37.6481 120.635 43.0659 119.777 43.8741C118.918 44.6823 113.619 46.1065 111.035 46.0281C108.534 45.9522 106.233 47.5509 105.483 47.5281C104.733 47.5053 105.048 48.0989 107.067 47.5762C109.085 47.0534 112.419 47.1546 114.977 48.0666C117.622 48.8977 119.665 50.2946 122.537 46.3773Z" fill="#060B0D" fill-opacity="0.8"/>
    <path d="M130.449 118.282C130.449 118.282 152.521 124.959 156.618 127.419C160.715 129.879 164.049 129.98 162.331 131.597C160.613 133.213 155.494 134.226 152.011 133.536C148.611 132.849 132.976 131.206 129.918 133.032C126.861 134.775 116.948 134.307 114.803 136.244C112.742 138.184 94.2305 140.625 91.73 140.549C89.2295 140.473 94.5489 138.382 99.656 137.787C104.763 137.191 117.14 133.479 121.696 131.781C126.25 130.168 126.005 129.993 131.754 130.251C137.419 130.507 147.169 130.886 147.975 129.075C148.78 127.264 147.189 127.466 144.689 127.39C142.188 127.315 137.66 125.342 136.043 123.624C134.427 121.906 129.208 123.417 129.208 123.417C129.208 123.417 132.553 120.431 130.449 118.282Z" fill="#B6D6E7" fill-opacity="0.8"/>
    <path d="M38.1218 114.644L40.9362 101.632C40.9362 101.632 55.5678 106.08 71.1113 107.971C71.1113 107.971 61.0966 108.084 58.0126 107.99C54.762 107.891 51.3316 113.711 58.5654 114.514C63.1371 115.07 78.3548 116.7 91.9409 117.112C105.527 117.525 108.944 117.629 113.445 117.765C117.863 117.899 107.411 121.42 101.493 121.24C95.5753 121.06 79.9105 120.418 78.107 122.115C76.3035 123.813 69.0319 121.506 66.9481 121.443C66.9481 121.443 56.8829 120.47 54.6983 118.234C52.5969 116.002 48.1134 120.788 53.8039 122.963C55.7007 123.688 65.4348 127.32 76.9802 126.252C88.609 125.187 91.6801 128.451 98.6716 126.244C105.577 124.117 125.132 125.795 129.115 120.994C128.655 122.398 127.539 123.449 126.026 123.82C118.294 125.671 99.995 129.371 80.741 128.786C63.154 128.252 49.0149 124.069 42.001 121.52C39.1949 120.517 37.5331 117.546 38.1218 114.644Z" fill="#A83030"/>
    <path d="M126.838 108.077C126.838 108.077 128.418 116.468 128.395 117.218C128.373 117.968 129.186 121.413 127.352 121.358C125.518 121.302 121.702 123.355 117.618 123.231C113.533 123.107 104.923 123.68 102.897 124.453C100.874 125.142 96.0878 126.165 95.0042 126.132C93.9207 126.099 91.2686 125.518 94.0318 125.185C96.7142 124.766 101.756 123.584 102.698 122.778C103.557 121.97 111.331 121.455 113.332 121.516C115.415 121.579 121.202 120.587 121.235 119.503C121.265 118.503 120.321 116.639 118.558 117.003C116.797 117.283 91.648 115.769 83.8131 115.531C75.8948 115.291 95.4292 114.882 101.18 115.057C106.932 115.232 113.842 112.939 108.44 112.274C103.034 111.693 89.7767 111.457 85.0788 109.563C84.998 109.477 115.994 110.751 126.838 108.077Z" fill="#D57B7B"/>
</svg>
