<svg width="153" height="175" viewBox="0 0 153 175" fill="none" xmlns="http://www.w3.org/2000/svg">
    <g opacity="0.29" filter="url(#filter0_d_308_8407)">
        <path d="M63.9564 87.2077C76.9588 59.1322 104.531 49.0656 114.49 60.0557C124.45 71.0458 112.738 102.446 95.8629 89.1471C78.9875 75.8482 54.5505 111.404 62.1121 131.353C69.6738 151.301 110.986 163.954 117.165 136.155C123.343 108.357 153.59 124.703 148.241 148.161C142.893 171.527 130.628 150.839 133.948 142.528C137.267 134.216 127.4 138.279 128.046 152.502C128.691 166.724 142.155 162.938 157.37 152.132C172.586 141.327 160.967 112.513 130.351 112.79C99.7359 113.067 107.39 96.4431 130.351 76.7717C153.313 57.1004 132.103 21.9136 87.0102 38.8144C41.917 55.6227 32.2344 45.9256 46.7122 32.8114C61.19 19.7895 49.2942 15.2642 38.8739 17.8501C28.4536 20.5283 21.0764 16.9265 23.474 10C23.474 10 11.3938 24.0378 28.4536 23.2989C45.5134 22.5601 48.8332 26.3466 37.2141 36.5979C25.595 46.8491 2.35675 57.1004 12.5004 77.2335C22.7363 97.4589 50.9541 115.283 63.9564 87.2077ZM134.501 159.521C132.288 160.998 127.216 153.425 130.444 150.655C133.579 147.792 138.005 157.119 134.501 159.521ZM154.419 149.546C147.596 145.575 149.809 133.107 155.618 135.97C163.272 139.572 158.569 152.04 154.419 149.546ZM140.403 118.331C142.985 110.388 162.166 123.226 159.86 132.83C157.647 142.528 138.374 124.888 140.403 118.331ZM107.021 138.372C101.949 161.368 55.4727 146.961 66.0774 121.286C72.7169 105.217 111.908 115.93 107.021 138.372ZM117.533 130.614C110.709 142.897 100.842 122.487 105.638 113.898C108.312 109.003 124.357 118.331 117.533 130.614ZM100.105 103.093C94.8485 94.0419 107.574 90.6248 111.539 93.3954C115.597 96.166 102.318 106.879 100.105 103.093ZM112.738 41.585C118.456 35.3049 145.106 58.8551 136.069 69.2911C127.032 79.6347 104.9 50.2662 112.738 41.585ZM47.911 54.6992C50.1242 47.9574 82.9528 50.2662 78.9875 63.1957C75.1145 76.0329 43.7613 67.7211 47.911 54.6992ZM34.0787 46.8491C36.8452 42.0467 48.9254 51.1897 47.1733 57.1004C45.4212 63.1034 32.6033 49.2503 34.0787 46.8491ZM17.2956 54.6992C26.1482 42.7856 68.475 69.1064 61.3744 87.3C54.2739 105.494 5.1232 71.0458 17.2956 54.6992Z" fill="#A0B0DB"/>
    </g>
    <path opacity="0.44" d="M127.576 149.593C128.19 152.174 131.262 157.949 129.173 158.195C126.593 158.44 121.063 159.301 121.063 159.301L121.432 160.161C121.432 160.161 127.699 157.703 129.296 158.563C129.296 158.563 129.419 162.495 126.47 161.512C122.046 160.161 128.805 162.25 128.805 162.25C128.805 162.25 129.419 158.563 130.156 157.457C130.894 156.474 134.211 158.932 134.211 158.932L132.737 156.229C132.737 156.229 133.228 158.195 130.771 156.966C130.771 156.966 129.296 152.419 131.754 155C133.474 156.72 128.928 151.436 128.928 151.436C128.928 151.436 130.771 155.737 130.279 156.843C130.279 156.843 127.822 150.822 128.436 150.453C128.928 150.085 134.58 157.826 134.58 157.826L135.194 160.406L134.334 158.809C134.334 158.809 131.754 162.127 127.822 161.389C119.097 160.038 130.402 162.495 130.402 162.495C130.402 162.495 129.665 161.144 131.999 161.144C131.999 161.144 132.491 162.372 131.385 162.741C130.156 163.11 131.754 163.724 131.754 163.724C131.754 163.724 131.631 163.11 131.877 162.741C131.877 162.741 132.491 163.724 131.999 164.216C131.508 164.707 133.228 164.461 133.228 164.461C133.228 164.461 132.368 165.076 132.122 162.987C132.122 162.987 136.546 162.495 136.423 163.233C136.3 163.97 136.915 163.11 136.915 163.11L136.546 161.758C136.546 161.758 133.597 162.987 132.122 162.987C132.122 162.987 131.999 161.512 132.86 160.898C133.597 160.406 135.686 162.127 135.686 162.127L135.44 161.635C135.44 161.635 134.088 161.021 133.474 160.529C133.474 160.529 134.334 158.932 135.071 160.406C135.686 161.512 135.686 160.529 135.686 160.529L134.949 157.949L132.737 154.631L126.962 148.119L127.576 149.593Z" fill="url(#paint0_linear_308_8407)"/>
    <path opacity="0.44" d="M106.564 105.972C107.301 108.307 116.271 115.557 117.991 113.468C120.572 110.519 123.029 104.743 123.029 104.743L124.381 104.498C124.381 104.498 118.974 111.625 119.22 114.205C119.22 114.205 122.783 116.048 123.398 111.256C124.381 103.269 126.347 115.679 126.347 115.679C126.347 115.679 119.097 114.451 116.762 114.574C114.796 114.574 116.025 119.734 116.025 119.734L113.445 116.294C113.445 116.294 115.657 118.26 115.657 114.942C115.657 114.942 111.356 111.87 112.585 114.574C113.813 117.277 108.898 110.273 108.898 110.273C108.898 110.273 114.059 114.082 115.779 114.328C115.779 114.328 107.301 108.307 106.81 108.675C106.318 109.044 114.428 119.12 114.428 119.12L117.746 122.192L116.025 119.857C116.025 119.857 122.538 121.578 125.487 116.294C129.173 112.362 126.961 119.857 126.961 119.857C126.961 119.857 124.504 117.523 122.169 119.98C122.169 119.98 126.224 122.438 128.804 121.823C132.245 120.963 131.016 123.789 131.016 123.789C131.016 123.789 127.207 122.069 125.732 121.823C125.732 121.823 128.682 125.51 131.139 125.878C133.965 126.37 127.33 133.497 127.33 133.497C127.33 133.497 131.016 126.124 126.224 122.806C125.732 122.561 125.732 122.315 125.487 122.561C124.135 123.544 120.572 126.124 122.046 126.984C123.889 128.09 121.186 127.107 121.186 127.107L118.974 124.772C118.974 124.772 124.135 123.666 125.855 122.069C125.855 122.069 122.661 119.98 120.695 120.226C119.097 120.349 120.817 124.281 120.817 124.281L119.957 123.421C119.957 123.421 119.957 121.332 119.712 120.226C119.712 120.226 116.517 119.366 118.114 121.578C119.466 123.421 117.868 122.315 117.868 122.315L114.674 119.12L111.97 114.819L105.704 106.464L106.564 105.972Z" fill="url(#paint1_linear_308_8407)"/>
    <path d="M54.3411 25.9796C54.3411 25.9796 56.1842 26.1025 57.9045 26.9626C57.9045 26.9626 60.7306 34.7038 65.0313 35.0725C65.0313 35.0725 66.1372 36.6698 65.2771 37.7757C65.2771 37.7757 67.9804 38.7587 68.7176 42.3222C69.332 45.8856 89.1151 76.8505 95.9962 86.1891C102.877 95.5277 95.9962 92.5786 124.626 128.827C124.626 128.827 123.521 124.772 126.347 127.598C129.173 130.425 132.368 129.564 129.664 126.493C129.664 126.493 131.876 125.018 128.681 123.666C125.487 122.315 122.046 106.095 122.415 98.1081C122.415 98.1081 122.906 96.8793 124.135 97.0022C124.135 97.0022 124.135 105.481 127.944 113.591C131.753 121.823 134.702 118.506 135.071 124.404C135.44 130.302 140.109 136.446 138.511 143.572C138.511 143.572 141.46 148.61 145.147 152.788C148.71 156.966 147.727 158.686 147.727 158.686C147.727 158.686 153.502 170.605 159.278 178.346C159.278 178.346 157.066 179.207 157.803 181.541C158.54 183.753 161.121 180.927 161.981 185.227C162.841 189.528 171.811 200.096 177.955 205.748C177.955 205.748 178.815 222.705 173.04 225.285C173.04 225.285 169.353 223.565 167.387 220.616C165.544 217.667 159.523 217.298 158.049 211.4C156.574 205.502 152.765 192.846 148.219 184.122C143.672 175.397 141.583 169.868 139.126 169.745C136.668 169.622 136.668 169.499 133.105 166.673C129.541 163.847 119.466 159.301 119.466 159.301L120.817 158.44C120.817 158.44 129.173 161.144 131.385 162.741C133.474 164.461 133.474 161.881 134.948 164.093C136.423 166.305 138.02 164.953 133.596 158.44C129.173 151.928 126.838 149.593 126.838 146.153C126.838 142.589 125.241 144.924 121.8 141.975C118.36 139.026 122.538 140.255 115.779 131.039C109.021 121.7 96.7334 97.3708 89.238 89.0152C81.7425 80.6596 81.0053 79.6766 81.3739 76.7276C81.6196 73.7785 81.6196 71.8125 72.4039 56.6987C65.0313 45.1483 64.9084 45.2712 54.3411 25.9796Z" fill="url(#paint2_linear_308_8407)"/>
    <path opacity="0.47" d="M81.1286 76.8505C80.8828 79.7995 81.4972 80.9054 88.9926 89.1382C96.4881 97.4938 108.776 121.823 115.534 131.162C122.292 140.501 117.991 139.149 121.555 142.098C125.118 145.047 126.593 142.835 126.593 146.276C126.593 149.839 128.927 152.174 133.351 158.563C136.3 162.864 136.546 164.83 136.054 165.076C137.775 164.953 137.652 161.144 132.368 152.297C126.716 142.835 129.05 142.344 129.05 142.344C124.75 141.606 122.907 138.043 122.292 133.742C121.678 129.442 118.237 131.408 115.165 126.124C112.093 120.84 97.1025 93.6846 89.7299 86.6806C82.3573 79.5538 88.8698 86.0662 86.0436 78.325C83.2175 70.7067 54.4644 25.7339 54.4644 25.7339C65.0317 45.0255 65.1546 44.9026 72.2814 56.453C81.3743 71.9354 81.3743 73.9015 81.1286 76.8505Z" fill="url(#paint3_linear_308_8407)"/>
    <path opacity="0.47" d="M133.351 123.298C136.054 128.213 132.736 135.831 138.266 143.695C139.863 136.568 135.194 130.425 134.825 124.527C134.457 118.628 131.508 121.946 127.698 113.713C123.889 105.481 123.889 97.1251 123.889 97.1251C122.292 122.438 130.647 118.383 133.351 123.298Z" fill="url(#paint4_linear_308_8407)"/>
    <path opacity="0.47" d="M159.401 202.676C156.574 188.791 149.57 180.19 144.287 172.448C139.003 164.584 141.215 171.834 135.317 167.288C129.296 162.741 119.22 159.546 119.22 159.546C119.22 159.546 129.296 163.97 132.859 166.919C136.423 169.745 136.423 169.868 138.88 169.991C141.338 170.114 143.427 175.643 147.973 184.367C152.519 193.092 156.329 205.748 157.803 211.646C159.278 217.544 165.299 217.913 167.142 220.862C168.985 223.811 172.794 225.531 172.794 225.531C178.569 223.073 177.709 205.994 177.709 205.994C176.726 213.366 162.35 216.561 159.401 202.676Z" fill="url(#paint5_linear_308_8407)"/>
    <path opacity="0.39" d="M64.2931 43.7967C67.1193 45.1483 69.8225 47.4829 72.2801 49.6947C71.7886 48.7117 71.1742 47.8516 70.8056 47.1143C68.1023 44.7797 65.1532 42.5679 62.45 40.7247C63.0643 41.8306 63.6787 42.8136 64.2931 43.7967Z" fill="#900040"/>
    <path opacity="0.39" d="M93.2922 94.6675C94.2752 96.1421 95.2583 97.6166 96.3641 99.3368C99.4361 100.811 101.894 100.688 103.491 99.9512C102.999 99.214 102.631 98.5996 102.262 97.8623C100.665 98.9682 97.3472 97.4937 93.2922 94.6675Z" fill="#900040"/>
    <path opacity="0.39" d="M68.471 50.8006C71.2971 52.1523 73.8775 53.9954 76.0893 55.9614C75.4749 55.1013 74.9834 54.1183 74.4919 53.2582C71.7886 50.9235 68.9625 48.8346 66.3821 47.2372C66.9965 48.466 67.7337 49.5719 68.471 50.8006Z" fill="#900040"/>
    <path opacity="0.39" d="M126.714 160.775C127.452 161.881 128.312 163.233 129.295 164.584C130.646 165.444 131.998 166.182 132.858 166.919C132.981 166.919 132.981 167.042 133.104 167.042C131.998 165.444 130.646 163.478 129.418 162.004C128.68 161.635 127.697 161.144 126.714 160.775Z" fill="#900040"/>
    <path opacity="0.39" d="M67.3657 39.6189C66.3827 38.2672 65.1539 37.8986 65.1539 37.8986C64.048 38.0215 62.2049 37.53 60.116 36.6698C60.3617 37.1614 60.6075 37.6529 60.9761 38.1444C64.2938 39.3731 66.3827 39.7418 67.3657 39.6189Z" fill="#900040"/>
    <path opacity="0.39" d="M82.6018 81.6426C83.3391 82.6256 84.3221 83.8544 85.7966 85.5747C96.1182 94.5447 99.8045 95.8963 100.419 94.5447C99.5588 92.8244 99.0673 91.4727 98.2071 89.9982C101.893 96.7564 91.6947 89.3838 82.6018 81.6426Z" fill="#900040"/>
    <path opacity="0.39" d="M81.1274 74.1472C81.2503 74.8844 81.2503 75.4988 81.2503 76.1132C87.2713 80.1681 91.3262 82.3799 93.9066 83.4858C93.1693 82.5028 92.4321 81.3969 91.6948 80.291C89.6059 79.9224 85.6739 77.4648 81.1274 74.1472Z" fill="#900040"/>
    <path opacity="0.39" d="M96.9788 100.443C97.4703 101.18 97.9618 101.917 98.3304 102.655C101.402 103.515 103.86 103.883 105.826 103.76C105.089 102.777 104.597 101.794 103.983 100.934C101.771 101.672 99.3134 101.303 96.9788 100.443Z" fill="#900040"/>
    <path opacity="0.39" d="M130.893 155.123C131.261 155.614 131.63 156.106 131.998 156.72C141.583 161.758 146.621 162.495 149.078 162.127C148.095 160.161 147.358 158.809 147.358 158.809C143.426 160.652 136.791 158.44 130.893 155.123Z" fill="#900040"/>
    <path opacity="0.39" d="M130.156 137.92C125.609 137.674 119.711 133.865 114.55 129.81C114.919 130.302 115.165 130.793 115.533 131.162C117.868 134.357 118.974 136.323 119.342 137.674C124.503 140.746 129.418 142.221 132.49 140.009C134.456 138.534 135.931 135.708 136.791 132.268C136.545 131.408 136.177 130.547 135.931 129.687C135.808 134.357 134.456 138.166 130.156 137.92Z" fill="#900040"/>
    <path opacity="0.39" d="M123.274 159.546C123.765 160.406 124.257 161.389 124.871 162.25C125.609 162.618 126.469 163.11 127.329 163.478L125.977 160.529C125.117 160.161 124.134 159.792 123.274 159.546Z" fill="#900040"/>
    <path opacity="0.39" d="M143.918 176.38C144.655 177.732 145.393 179.207 146.253 180.927C149.325 179.698 152.397 167.656 134.457 160.161C134.825 160.652 135.071 161.144 135.317 161.635C139.494 163.847 144.041 168.148 143.918 176.38Z" fill="#900040"/>
    <path opacity="0.39" d="M126.223 144.432C126.469 144.678 126.592 145.17 126.592 146.03C131.384 147.382 136.176 147.382 140.231 146.767C139.002 144.924 138.265 143.695 138.265 143.695C133.964 145.047 129.909 145.17 126.223 144.432Z" fill="#900040"/>
    <path opacity="0.39" d="M125.609 108.43C124.749 109.658 124.135 111.133 123.766 112.607C124.012 113.959 124.38 115.188 124.749 116.417C125.118 114.328 125.978 112.853 126.961 111.87C126.347 110.641 125.978 109.536 125.609 108.43Z" fill="#900040"/>
    <path opacity="0.39" d="M128.435 115.188C126.961 116.785 126.346 118.628 125.978 120.226C126.223 120.963 126.592 121.577 126.838 122.069C127.452 119.611 128.435 117.891 129.418 116.785C129.049 116.294 128.681 115.802 128.435 115.188Z" fill="#900040"/>
    <path opacity="0.39" d="M124.502 103.269C123.765 104.375 123.151 105.481 122.782 106.587C122.905 107.692 123.151 108.798 123.274 109.904C123.765 108.43 124.502 107.324 125.117 106.341C124.871 105.235 124.625 104.129 124.502 103.269Z" fill="#900040"/>
    <path opacity="0.39" d="M109.758 122.069L124.38 128.95C124.38 128.95 115.41 122.683 106.071 115.802C107.423 118.014 108.652 120.103 109.758 122.069Z" fill="#900040"/>
    <path opacity="0.39" d="M62.4497 40.6019C62.8183 41.3391 63.187 41.9535 63.5556 42.5679C66.136 43.9195 68.8393 45.7627 71.1739 47.6058C71.0511 47.3601 70.9282 47.1143 70.8053 46.9914C68.102 44.7797 65.153 42.5679 62.4497 40.6019Z" fill="#900040"/>
    <path opacity="0.39" d="M102.631 98.5995C102.508 98.3538 102.385 98.108 102.262 97.9852C100.665 98.9682 97.3469 97.4937 93.292 94.7904C93.7835 95.5276 94.275 96.2649 94.7665 97.0021C95.0123 97.3708 95.1351 97.6165 95.3809 97.9852C98.5757 99.2139 100.91 99.091 102.631 98.5995Z" fill="#900040"/>
    <path opacity="0.39" d="M74.4917 53.381C71.7884 51.0464 68.9622 48.9575 66.3818 47.3601C66.8733 48.0974 67.3648 48.9575 67.8563 49.6948C70.4368 50.9235 72.7714 52.398 74.9832 53.9954C74.7374 53.7497 74.6146 53.6268 74.4917 53.381Z" fill="#900040"/>
    <path opacity="0.39" d="M126.714 160.775C127.451 161.881 128.312 163.233 129.295 164.584C129.663 164.83 130.032 164.953 130.278 165.199C130.523 165.321 130.892 165.567 131.138 165.69C130.155 164.216 129.049 162.741 128.189 161.389C128.189 161.389 128.066 161.389 128.066 161.267C127.697 161.144 127.206 161.021 126.714 160.775Z" fill="#900040"/>
    <path opacity="0.39" d="M65.2762 37.8986C64.1703 38.0215 62.3272 37.4071 60.2383 36.6698C60.3612 36.9156 60.484 37.1614 60.6069 37.4071C63.5559 38.513 65.522 38.8816 66.7507 38.8816C66.0135 38.2672 65.3991 37.8986 65.2762 37.8986Z" fill="#900040"/>
    <path opacity="0.39" d="M100.173 93.8074C100.05 93.5616 99.9276 93.3159 99.8047 93.0701C99.6818 92.8244 99.5589 92.7015 99.5589 92.4558C99.5589 92.3329 99.4361 92.3329 99.4361 92.21C99.3132 91.8414 99.1903 91.5956 98.9446 91.227V91.1041C98.8217 90.9812 98.6988 90.7355 98.6988 90.6126V90.7355C101.279 96.3878 91.4491 89.261 82.7249 81.7655C82.8477 82.0113 83.0935 82.257 83.3392 82.5028C83.3392 82.5028 83.3392 82.6256 83.4621 82.6256C83.7079 82.8714 83.8307 83.1171 84.0765 83.4858C84.0765 83.4858 84.0765 83.6086 84.1994 83.6086C84.4451 83.8544 84.6909 84.223 85.0595 84.5917C85.1824 84.7145 85.3053 84.8374 85.3053 84.9603C95.3811 93.193 99.1903 94.7904 100.173 93.8074Z" fill="#900040"/>
    <path opacity="0.39" d="M91.6946 80.291C89.7285 79.9224 85.6736 77.4648 81.1272 74.1472C81.1272 74.3929 81.2501 74.7616 81.2501 75.0073C86.4109 78.5707 90.2201 80.6596 92.6776 81.7655C92.309 81.1511 91.9403 80.7825 91.6946 80.291Z" fill="#900040"/>
    <path opacity="0.39" d="M96.9785 100.443C97.1014 100.688 97.3471 100.934 97.47 101.303C100.419 102.04 102.877 102.409 104.843 102.409C104.597 101.917 104.228 101.426 103.982 101.057C101.771 101.671 99.3132 101.303 96.9785 100.443Z" fill="#900040"/>
    <path opacity="0.39" d="M147.481 158.932C143.549 160.652 136.914 158.44 130.893 155.123C131.015 155.246 131.138 155.491 131.261 155.614C140.231 159.792 145.515 160.775 148.464 160.898C147.85 159.792 147.604 159.178 147.481 158.932Z" fill="#900040"/>
    <path opacity="0.39" d="M130.155 137.92C125.609 137.674 119.711 133.865 114.55 129.81C114.673 130.056 114.919 130.302 115.042 130.547C115.164 130.793 115.41 131.039 115.533 131.285C115.779 131.653 116.025 132.022 116.27 132.268C116.393 132.391 116.393 132.391 116.516 132.513C116.639 132.759 116.885 133.005 117.008 133.251C117.008 133.374 117.13 133.374 117.13 133.496C117.376 133.742 117.499 134.111 117.622 134.357L117.745 134.479C117.868 134.725 117.991 134.848 118.113 135.094L118.236 135.217C118.482 135.708 118.728 136.077 118.974 136.446C124.257 139.272 129.172 140.623 132.244 138.412C134.21 137.06 135.685 134.602 136.545 131.408C136.299 130.793 136.176 130.179 135.931 129.564C135.808 134.357 134.456 138.166 130.155 137.92Z" fill="#A83030"/>
    <path opacity="0.39" d="M123.274 159.546C123.765 160.406 124.257 161.389 124.871 162.25C125.117 162.372 125.485 162.495 125.731 162.618L124.134 159.792C123.888 159.669 123.519 159.546 123.274 159.546Z" fill="#900040"/>
    <path opacity="0.39" d="M147.113 170.237C145.269 166.796 141.46 163.233 134.456 160.284C134.579 160.406 134.702 160.652 134.702 160.775C136.545 161.758 138.265 163.233 139.617 164.953C142.198 167.533 144.041 171.097 143.918 176.503C144.409 177.363 144.901 178.346 145.392 179.329C145.392 179.452 145.515 179.452 145.515 179.575C147.358 178.838 149.079 174.906 147.113 170.237Z" fill="#A83030"/>
    <path opacity="0.39" d="M138.388 143.941C138.265 143.818 138.265 143.695 138.265 143.695C134.087 145.047 130.032 145.17 126.223 144.432C126.346 144.555 126.346 144.555 126.346 144.678C126.346 144.801 126.469 144.924 126.469 145.047V145.17C131.138 145.907 135.562 146.153 139.616 145.907C139.002 145.047 138.633 144.432 138.388 143.941Z" fill="#A83030"/>
    <path opacity="0.39" d="M126.223 110.027C125.977 109.413 125.854 108.921 125.731 108.307C124.871 109.536 124.257 111.01 123.888 112.485C123.888 112.73 124.011 112.976 124.011 113.222C124.625 112.116 125.608 111.133 126.469 110.273C126.346 110.396 126.223 110.273 126.223 110.027C126.223 110.15 126.223 110.15 126.223 110.027Z" fill="#900040"/>
    <path opacity="0.39" d="M128.435 115.188C126.96 116.785 126.346 118.628 125.977 120.226C126.1 120.472 126.223 120.84 126.346 121.086C126.96 118.628 127.82 116.908 128.681 115.802C128.558 115.557 128.435 115.434 128.435 115.188Z" fill="#900040"/>
    <path opacity="0.39" d="M124.502 103.269C123.765 104.375 123.151 105.481 122.782 106.587C122.782 106.832 122.905 106.955 122.905 107.201C123.519 106.709 124.379 106.218 125.117 105.849C124.748 104.989 124.625 104.006 124.502 103.269Z" fill="#900040"/>
    <path opacity="0.39" d="M107.915 118.874L124.503 128.95C124.503 128.95 115.533 122.683 106.194 115.802C106.686 116.908 107.3 117.891 107.915 118.874Z" fill="#900040"/>
    <path opacity="0.39" d="M62.4502 40.6019C65.1535 42.568 68.2254 44.7797 70.8058 46.9915C70.4372 46.3771 70.1915 45.8856 69.9457 45.3941C67.3653 43.4281 64.662 41.585 61.9587 39.8647C62.5731 40.8477 63.0646 41.8307 63.5561 42.6908C63.1875 41.9536 62.8189 41.3392 62.4502 40.6019Z" fill="url(#paint6_linear_308_8407)"/>
    <path opacity="0.39" d="M93.2925 94.6676C97.3475 97.3709 100.665 98.9682 102.263 97.8624C102.017 97.3709 101.771 96.8793 101.525 96.3878C99.9279 97.248 96.7331 96.0192 92.801 93.6846C92.9239 94.1761 93.1697 94.4218 93.2925 94.6676Z" fill="url(#paint7_linear_308_8407)"/>
    <path opacity="0.39" d="M74.4922 53.3811C74.1236 52.7667 73.755 52.2752 73.5092 51.6608C70.9288 49.6948 68.3484 47.9745 65.8909 46.5C66.0137 46.7458 66.1366 46.9915 66.3824 47.2373C68.9628 48.9575 71.7889 51.0464 74.4922 53.3811Z" fill="url(#paint8_linear_308_8407)"/>
    <path opacity="0.39" d="M129.295 164.584C128.435 163.355 127.452 162.004 126.715 160.775C126.346 160.652 125.977 160.529 125.609 160.284C125.732 160.284 125.854 160.406 125.977 160.406L126.592 161.635C126.96 162.25 127.452 162.987 127.943 163.601C128.312 163.97 128.803 164.339 129.295 164.584Z" fill="url(#paint9_linear_308_8407)"/>
    <path opacity="0.39" d="M65.2768 37.8986C65.3996 37.7757 65.5225 37.53 65.5225 37.4071C65.1539 37.1614 64.7852 37.0385 64.7852 37.0385C63.6794 37.1614 61.9591 36.6699 59.7473 35.9326C59.8702 36.1784 59.9931 36.4241 60.1159 36.6699C62.3277 37.4071 64.1709 37.8986 65.2768 37.8986Z" fill="url(#paint10_linear_308_8407)"/>
    <path opacity="0.39" d="M83.2168 82.3799C82.9711 82.1341 82.8482 81.8884 82.6024 81.6426C91.3267 89.1381 101.157 96.2649 98.5764 90.6126C99.5594 94.2989 90.7123 88.0322 82.3567 81.274C82.6024 81.6426 82.9711 82.0113 83.2168 82.3799Z" fill="url(#paint11_linear_308_8407)"/>
    <path opacity="0.39" d="M81.1277 74.1472C85.6741 77.4648 89.729 79.9223 91.695 80.291C91.3264 79.7995 90.9578 79.1851 90.5891 78.6936C88.5002 78.0792 84.814 75.7446 80.759 72.7955C80.8819 73.287 81.0048 73.6557 81.1277 74.1472Z" fill="url(#paint12_linear_308_8407)"/>
    <path opacity="0.39" d="M103.983 100.934C103.737 100.566 103.614 100.32 103.368 99.9512C101.771 100.688 99.3134 100.811 96.2415 99.3369C96.4872 99.7055 96.6101 99.9512 96.8558 100.32C99.3134 101.303 101.771 101.672 103.983 100.934Z" fill="url(#paint13_linear_308_8407)"/>
    <path opacity="0.39" d="M147.358 158.809C147.358 158.809 147.603 158.44 147.358 157.457C143.18 159.055 136.422 157.089 130.032 154.14C130.278 154.508 130.523 154.754 130.769 155.123C136.79 158.44 143.426 160.652 147.358 158.809Z" fill="url(#paint14_linear_308_8407)"/>
    <path opacity="0.39" d="M130.155 137.92C134.333 138.166 135.685 134.357 135.808 129.687C135.808 129.564 135.685 129.319 135.685 129.196C135.439 133.374 133.842 136.691 129.664 136.446C125.118 136.2 119.219 132.759 113.936 128.95C114.059 129.196 114.304 129.442 114.427 129.687C119.711 133.865 125.609 137.551 130.155 137.92Z" fill="url(#paint15_linear_308_8407)"/>
    <path opacity="0.39" d="M124.872 162.25C124.258 161.389 123.766 160.406 123.275 159.546C122.783 159.423 122.292 159.178 121.923 159.055C122.415 159.915 123.029 160.775 123.52 161.512C124.012 161.758 124.381 162.004 124.872 162.25Z" fill="url(#paint16_linear_308_8407)"/>
    <path opacity="0.39" d="M147.112 170.237C145.515 166.55 141.583 162.495 133.596 159.055C133.842 159.546 134.21 159.915 134.333 160.284C141.46 163.11 145.269 166.796 147.112 170.237Z" fill="url(#paint17_linear_308_8407)"/>
    <path opacity="0.39" d="M143.917 176.38C144.04 171.097 142.197 167.41 139.617 164.83C141.583 167.165 142.811 170.237 142.811 174.292C143.18 175.029 143.549 175.643 143.917 176.38Z" fill="url(#paint18_linear_308_8407)"/>
    <path opacity="0.39" d="M138.265 143.695C138.388 143.327 138.388 142.958 138.388 142.712C132.859 143.695 127.575 143.695 122.537 142.958C124.38 144.187 125.609 143.941 126.101 144.555C129.91 145.17 133.965 145.047 138.265 143.695Z" fill="url(#paint19_linear_308_8407)"/>
    <path opacity="0.39" d="M123.766 112.608C124.134 111.01 124.749 109.658 125.609 108.43C125.486 108.061 125.363 107.692 125.24 107.201C124.626 108.43 123.889 110.15 123.397 111.502C123.52 112.116 123.643 112.73 123.766 113.345C123.889 113.099 123.766 112.853 123.766 112.608Z" fill="url(#paint20_linear_308_8407)"/>
    <path opacity="0.39" d="M125.977 120.226C126.223 118.628 126.96 116.785 128.435 115.188C128.189 114.819 128.066 114.328 127.82 113.959C126.592 115.557 125.854 117.4 125.609 118.997C125.854 119.734 126.1 120.472 126.469 121.086C126.223 120.717 126.1 120.472 125.977 120.226Z" fill="url(#paint21_linear_308_8407)"/>
    <path opacity="0.39" d="M122.66 106.587C123.151 105.481 123.643 104.252 124.38 103.269C124.38 103.146 124.38 103.023 124.38 102.9C123.643 103.392 123.029 104.375 122.537 105.235C122.66 105.849 122.66 106.587 122.783 107.201C122.783 106.955 122.66 106.832 122.66 106.587Z" fill="url(#paint22_linear_308_8407)"/>
    <path opacity="0.39" d="M106.195 115.925C115.533 122.806 124.503 129.073 124.503 129.073C124.503 129.073 113.567 119.734 104.474 112.976C105.703 115.065 106.809 117.031 107.915 118.997C107.301 117.891 106.686 116.908 106.195 115.925Z" fill="url(#paint23_linear_308_8407)"/>
    <path d="M54.3411 25.9796C54.3411 25.9796 57.2901 29.7888 57.9045 26.9626C57.9045 26.9626 56.6757 26.1025 54.3411 25.9796Z" fill="#B3FFFF"/>
    <defs>
        <filter id="filter0_d_308_8407" x="0" y="0" width="174.031" height="171.766" filterUnits="userSpaceOnUse" color-interpolation-filters="sRGB">
            <feFlood flood-opacity="0" result="BackgroundImageFix"/>
            <feColorMatrix in="SourceAlpha" type="matrix" values="0 0 0 0 0 0 0 0 0 0 0 0 0 0 0 0 0 0 127 0" result="hardAlpha"/>
            <feOffset/>
            <feGaussianBlur stdDeviation="5"/>
            <feComposite in2="hardAlpha" operator="out"/>
            <feColorMatrix type="matrix" values="0 0 0 0 0 0 0 0 0 0.263954 0 0 0 0 0.945833 0 0 0 1 0"/>
            <feBlend mode="normal" in2="BackgroundImageFix" result="effect1_dropShadow_308_8407"/>
            <feBlend mode="normal" in="SourceGraphic" in2="effect1_dropShadow_308_8407" result="shape"/>
        </filter>
        <linearGradient id="paint0_linear_308_8407" x1="135.124" y1="165.537" x2="119.541" y2="149.505" gradientUnits="userSpaceOnUse">
            <stop offset="0.00417508"/>
            <stop offset="0.2769" stop-color="#4D4D4D"/>
            <stop offset="0.6325" stop-color="#ACACAC"/>
            <stop offset="0.8817" stop-color="#E8E8E8"/>
            <stop offset="1" stop-color="white"/>
        </linearGradient>
        <linearGradient id="paint1_linear_308_8407" x1="117.696" y1="124.233" x2="130.651" y2="113.079" gradientUnits="userSpaceOnUse">
            <stop offset="0.00417508"/>
            <stop offset="0.2769" stop-color="#4D4D4D"/>
            <stop offset="0.6325" stop-color="#ACACAC"/>
            <stop offset="0.8817" stop-color="#E8E8E8"/>
            <stop offset="1" stop-color="white"/>
        </linearGradient>
        <linearGradient id="paint2_linear_308_8407" x1="95.2315" y1="286.85" x2="125.417" y2="43.1073" gradientUnits="userSpaceOnUse">
            <stop stop-color="#241102"/>
            <stop offset="0.2105" stop-color="#3D2411"/>
            <stop offset="0.6099" stop-color="#6C4C38"/>
            <stop offset="1" stop-color="#A97F64"/>
        </linearGradient>
        <linearGradient id="paint3_linear_308_8407" x1="72.2503" y1="284.004" x2="102.436" y2="40.2618" gradientUnits="userSpaceOnUse">
            <stop offset="0.3081" stop-color="#900040"/>
            <stop offset="0.38" stop-color="#920544"/>
            <stop offset="0.4656" stop-color="#98134F"/>
            <stop offset="0.5581" stop-color="#A32C61"/>
            <stop offset="0.6556" stop-color="#B24D7A"/>
            <stop offset="0.7569" stop-color="#C4789A"/>
            <stop offset="0.8616" stop-color="#DBADC2"/>
            <stop offset="0.967" stop-color="#F6EAEF"/>
            <stop offset="1" stop-color="white"/>
        </linearGradient>
        <linearGradient id="paint4_linear_308_8407" x1="110.217" y1="288.706" x2="140.402" y2="44.9628" gradientUnits="userSpaceOnUse">
            <stop offset="0.2721" stop-color="#900040"/>
            <stop offset="0.3478" stop-color="#920544"/>
            <stop offset="0.4378" stop-color="#98134F"/>
            <stop offset="0.5352" stop-color="#A32C61"/>
            <stop offset="0.6377" stop-color="#B24D7A"/>
            <stop offset="0.7443" stop-color="#C4789A"/>
            <stop offset="0.8544" stop-color="#DBADC2"/>
            <stop offset="0.9653" stop-color="#F6EAEF"/>
            <stop offset="1" stop-color="white"/>
        </linearGradient>
        <linearGradient id="paint5_linear_308_8407" x1="135.348" y1="291.818" x2="165.534" y2="48.0753" gradientUnits="userSpaceOnUse">
            <stop offset="0.2787" stop-color="#900040"/>
            <stop offset="0.3537" stop-color="#920544"/>
            <stop offset="0.4429" stop-color="#98134F"/>
            <stop offset="0.5393" stop-color="#A32C61"/>
            <stop offset="0.6409" stop-color="#B24D7A"/>
            <stop offset="0.7466" stop-color="#C4789A"/>
            <stop offset="0.8557" stop-color="#DBADC2"/>
            <stop offset="0.9656" stop-color="#F6EAEF"/>
            <stop offset="1" stop-color="white"/>
        </linearGradient>
        <linearGradient id="paint6_linear_308_8407" x1="61.6162" y1="42.8665" x2="71.1833" y2="44.0513" gradientUnits="userSpaceOnUse">
            <stop/>
            <stop offset="0.0965911" stop-color="#060604"/>
            <stop offset="0.2207" stop-color="#16160E"/>
            <stop offset="0.36" stop-color="#30301E"/>
            <stop offset="0.5103" stop-color="#555536"/>
            <stop offset="0.6694" stop-color="#848454"/>
            <stop offset="0.8347" stop-color="#BEBE78"/>
            <stop offset="1" stop-color="#FFFFA1"/>
        </linearGradient>
        <linearGradient id="paint7_linear_308_8407" x1="92.4987" y1="95.5305" x2="102.417" y2="96.7588" gradientUnits="userSpaceOnUse">
            <stop/>
            <stop offset="0.0965911" stop-color="#060604"/>
            <stop offset="0.2207" stop-color="#16160E"/>
            <stop offset="0.36" stop-color="#30301E"/>
            <stop offset="0.5103" stop-color="#555536"/>
            <stop offset="0.6694" stop-color="#848454"/>
            <stop offset="0.8347" stop-color="#BEBE78"/>
            <stop offset="1" stop-color="#FFFFA1"/>
        </linearGradient>
        <linearGradient id="paint8_linear_308_8407" x1="65.5497" y1="49.406" x2="74.8286" y2="50.5552" gradientUnits="userSpaceOnUse">
            <stop/>
            <stop offset="0.0965911" stop-color="#060604"/>
            <stop offset="0.2207" stop-color="#16160E"/>
            <stop offset="0.36" stop-color="#30301E"/>
            <stop offset="0.5103" stop-color="#555536"/>
            <stop offset="0.6694" stop-color="#848454"/>
            <stop offset="0.8347" stop-color="#BEBE78"/>
            <stop offset="1" stop-color="#FFFFA1"/>
        </linearGradient>
        <linearGradient id="paint9_linear_308_8407" x1="125.429" y1="162.212" x2="129.563" y2="162.724" gradientUnits="userSpaceOnUse">
            <stop/>
            <stop offset="0.0965911" stop-color="#060604"/>
            <stop offset="0.2207" stop-color="#16160E"/>
            <stop offset="0.36" stop-color="#30301E"/>
            <stop offset="0.5103" stop-color="#555536"/>
            <stop offset="0.6694" stop-color="#848454"/>
            <stop offset="0.8347" stop-color="#BEBE78"/>
            <stop offset="1" stop-color="#FFFFA1"/>
        </linearGradient>
        <linearGradient id="paint10_linear_308_8407" x1="59.6771" y1="36.5612" x2="65.4829" y2="37.2802" gradientUnits="userSpaceOnUse">
            <stop/>
            <stop offset="0.0965911" stop-color="#060604"/>
            <stop offset="0.2207" stop-color="#16160E"/>
            <stop offset="0.36" stop-color="#30301E"/>
            <stop offset="0.5103" stop-color="#555536"/>
            <stop offset="0.6694" stop-color="#848454"/>
            <stop offset="0.8347" stop-color="#BEBE78"/>
            <stop offset="1" stop-color="#FFFFA1"/>
        </linearGradient>
        <linearGradient id="paint11_linear_308_8407" x1="81.8603" y1="85.9427" x2="99.5211" y2="88.1298" gradientUnits="userSpaceOnUse">
            <stop/>
            <stop offset="0.0965911" stop-color="#060604"/>
            <stop offset="0.2207" stop-color="#16160E"/>
            <stop offset="0.36" stop-color="#30301E"/>
            <stop offset="0.5103" stop-color="#555536"/>
            <stop offset="0.6694" stop-color="#848454"/>
            <stop offset="0.8347" stop-color="#BEBE78"/>
            <stop offset="1" stop-color="#FFFFA1"/>
        </linearGradient>
        <linearGradient id="paint12_linear_308_8407" x1="80.3282" y1="75.7668" x2="92.0245" y2="77.2153" gradientUnits="userSpaceOnUse">
            <stop/>
            <stop offset="0.0965911" stop-color="#060604"/>
            <stop offset="0.2207" stop-color="#16160E"/>
            <stop offset="0.36" stop-color="#30301E"/>
            <stop offset="0.5103" stop-color="#555536"/>
            <stop offset="0.6694" stop-color="#848454"/>
            <stop offset="0.8347" stop-color="#BEBE78"/>
            <stop offset="1" stop-color="#FFFFA1"/>
        </linearGradient>
        <linearGradient id="paint13_linear_308_8407" x1="96.2837" y1="99.9202" x2="104.009" y2="100.877" gradientUnits="userSpaceOnUse">
            <stop/>
            <stop offset="0.0965911" stop-color="#060604"/>
            <stop offset="0.2207" stop-color="#16160E"/>
            <stop offset="0.36" stop-color="#30301E"/>
            <stop offset="0.5103" stop-color="#555536"/>
            <stop offset="0.6694" stop-color="#848454"/>
            <stop offset="0.8347" stop-color="#BEBE78"/>
            <stop offset="1" stop-color="#FFFFA1"/>
        </linearGradient>
        <linearGradient id="paint14_linear_308_8407" x1="129.938" y1="155.963" x2="147.567" y2="158.147" gradientUnits="userSpaceOnUse">
            <stop/>
            <stop offset="0.0965911" stop-color="#060604"/>
            <stop offset="0.2207" stop-color="#16160E"/>
            <stop offset="0.36" stop-color="#30301E"/>
            <stop offset="0.5103" stop-color="#555536"/>
            <stop offset="0.6694" stop-color="#848454"/>
            <stop offset="0.8347" stop-color="#BEBE78"/>
            <stop offset="1" stop-color="#FFFFA1"/>
        </linearGradient>
        <linearGradient id="paint15_linear_308_8407" x1="113.766" y1="131.154" x2="135.501" y2="133.845" gradientUnits="userSpaceOnUse">
            <stop/>
            <stop offset="0.0965911" stop-color="#060604"/>
            <stop offset="0.2207" stop-color="#16160E"/>
            <stop offset="0.36" stop-color="#30301E"/>
            <stop offset="0.5103" stop-color="#555536"/>
            <stop offset="0.6694" stop-color="#848454"/>
            <stop offset="0.8347" stop-color="#BEBE78"/>
            <stop offset="1" stop-color="#FFFFA1"/>
        </linearGradient>
        <linearGradient id="paint16_linear_308_8407" x1="121.782" y1="160.419" x2="125.043" y2="160.823" gradientUnits="userSpaceOnUse">
            <stop/>
            <stop offset="0.0965911" stop-color="#060604"/>
            <stop offset="0.2207" stop-color="#16160E"/>
            <stop offset="0.36" stop-color="#30301E"/>
            <stop offset="0.5103" stop-color="#555536"/>
            <stop offset="0.6694" stop-color="#848454"/>
            <stop offset="0.8347" stop-color="#BEBE78"/>
            <stop offset="1" stop-color="#FFFFA1"/>
        </linearGradient>
        <linearGradient id="paint17_linear_308_8407" x1="132.979" y1="163.693" x2="147.638" y2="165.508" gradientUnits="userSpaceOnUse">
            <stop/>
            <stop offset="0.0965911" stop-color="#060604"/>
            <stop offset="0.2207" stop-color="#16160E"/>
            <stop offset="0.36" stop-color="#30301E"/>
            <stop offset="0.5103" stop-color="#555536"/>
            <stop offset="0.6694" stop-color="#848454"/>
            <stop offset="0.8347" stop-color="#BEBE78"/>
            <stop offset="1" stop-color="#FFFFA1"/>
        </linearGradient>
        <linearGradient id="paint18_linear_308_8407" x1="138.935" y1="170.272" x2="144.574" y2="170.97" gradientUnits="userSpaceOnUse">
            <stop/>
            <stop offset="0.0965911" stop-color="#060604"/>
            <stop offset="0.2207" stop-color="#16160E"/>
            <stop offset="0.36" stop-color="#30301E"/>
            <stop offset="0.5103" stop-color="#555536"/>
            <stop offset="0.6694" stop-color="#848454"/>
            <stop offset="0.8347" stop-color="#BEBE78"/>
            <stop offset="1" stop-color="#FFFFA1"/>
        </linearGradient>
        <linearGradient id="paint19_linear_308_8407" x1="122.648" y1="142.401" x2="138.219" y2="144.329" gradientUnits="userSpaceOnUse">
            <stop/>
            <stop offset="0.0965911" stop-color="#060604"/>
            <stop offset="0.2207" stop-color="#16160E"/>
            <stop offset="0.36" stop-color="#30301E"/>
            <stop offset="0.5103" stop-color="#555536"/>
            <stop offset="0.6694" stop-color="#848454"/>
            <stop offset="0.8347" stop-color="#BEBE78"/>
            <stop offset="1" stop-color="#FFFFA1"/>
        </linearGradient>
        <linearGradient id="paint20_linear_308_8407" x1="123.676" y1="110.165" x2="125.404" y2="110.379" gradientUnits="userSpaceOnUse">
            <stop/>
            <stop offset="0.0965911" stop-color="#060604"/>
            <stop offset="0.2207" stop-color="#16160E"/>
            <stop offset="0.36" stop-color="#30301E"/>
            <stop offset="0.5103" stop-color="#555536"/>
            <stop offset="0.6694" stop-color="#848454"/>
            <stop offset="0.8347" stop-color="#BEBE78"/>
            <stop offset="1" stop-color="#FFFFA1"/>
        </linearGradient>
        <linearGradient id="paint21_linear_308_8407" x1="125.699" y1="117.312" x2="128.096" y2="117.609" gradientUnits="userSpaceOnUse">
            <stop/>
            <stop offset="0.0965911" stop-color="#060604"/>
            <stop offset="0.2207" stop-color="#16160E"/>
            <stop offset="0.36" stop-color="#30301E"/>
            <stop offset="0.5103" stop-color="#555536"/>
            <stop offset="0.6694" stop-color="#848454"/>
            <stop offset="0.8347" stop-color="#BEBE78"/>
            <stop offset="1" stop-color="#FFFFA1"/>
        </linearGradient>
        <linearGradient id="paint22_linear_308_8407" x1="122.549" y1="104.928" x2="124.209" y2="105.134" gradientUnits="userSpaceOnUse">
            <stop/>
            <stop offset="0.0965911" stop-color="#060604"/>
            <stop offset="0.2207" stop-color="#16160E"/>
            <stop offset="0.36" stop-color="#30301E"/>
            <stop offset="0.5103" stop-color="#555536"/>
            <stop offset="0.6694" stop-color="#848454"/>
            <stop offset="0.8347" stop-color="#BEBE78"/>
            <stop offset="1" stop-color="#FFFFA1"/>
        </linearGradient>
        <linearGradient id="paint23_linear_308_8407" x1="103.584" y1="119.603" x2="125.27" y2="122.289" gradientUnits="userSpaceOnUse">
            <stop/>
            <stop offset="0.0965911" stop-color="#060604"/>
            <stop offset="0.2207" stop-color="#16160E"/>
            <stop offset="0.36" stop-color="#30301E"/>
            <stop offset="0.5103" stop-color="#555536"/>
            <stop offset="0.6694" stop-color="#848454"/>
            <stop offset="0.8347" stop-color="#BEBE78"/>
            <stop offset="1" stop-color="#FFFFA1"/>
        </linearGradient>
    </defs>
</svg>
